<svg xmlns="http://www.w3.org/2000/svg" xmlns:xlink="http://www.w3.org/1999/xlink" width="822.839" height="369.067" viewBox="0 0 822.839 369.067"><defs><style>.a,.f{fill:#fff;}.a{stroke:#3d63e2;stroke-width:3px;}.b{fill:#e23d5d;font-size:91px;font-family:FontAwesome5Free-Solid, 'Font Awesome \35  Free';}.c{fill:#3d63e2;font-size:23px;}.c,.d,.f{font-family:ProximaNova-Medium, Proxima Nova;font-weight:500;}.d{fill:#395ef8;}.d,.f{font-size:16px;}.e{fill:#2939b4;}.g{stroke:none;}.h{fill:none;}.i{filter:url(#c);}.j{filter:url(#a);}</style><filter id="a" x="0" y="49.067" width="764" height="320" filterUnits="userSpaceOnUse"><feOffset dy="3" input="SourceAlpha"/><feGaussianBlur stdDeviation="10" result="b"/><feFlood flood-opacity="0.161"/><feComposite operator="in" in2="b"/><feComposite in="SourceGraphic"/></filter><filter id="c" x="605.385" y="0" width="217.454" height="213.4" filterUnits="userSpaceOnUse"><feOffset dy="3" input="SourceAlpha"/><feGaussianBlur stdDeviation="15" result="d"/><feFlood flood-opacity="0.161"/><feComposite operator="in" in2="d"/><feComposite in="SourceGraphic"/></filter></defs><g transform="translate(30 42.407)"><g class="j" transform="matrix(1, 0, 0, 1, -30, -42.41)"><g class="a" transform="translate(30 76.07)"><rect class="g" width="704" height="260" rx="29"/><rect class="h" x="1.5" y="1.5" width="701" height="257" rx="27.5"/></g></g><g class="i" transform="matrix(1, 0, 0, 1, -30, -42.41)"><text class="b" transform="matrix(0.91, -0.41, 0.41, 0.91, 686.58, 153.72)"><tspan x="0" y="0"></tspan></text></g><text class="c" transform="translate(55 89.16)"><tspan x="0" y="0">CS 1110: Introduction to Computing Using Python</tspan></text><text class="d" transform="translate(55 106.16)"><tspan x="0" y="15">Programming and problem solving using Python. Emphasizes principles of software </tspan><tspan x="0" y="37">development, style, and testing. Topics include procedures and functions, iteration, </tspan><tspan x="0" y="59">recusion, arrays and vectors, strings, an operational model of procedure and </tspan><tspan x="0" y="81">function calls, algorithms, exceptions, object-oriented programming, and GUIs </tspan><tspan x="0" y="103">(graphical user interfaces).</tspan></text><rect class="e" width="162" height="32" rx="7" transform="translate(55 231.16)"/><text class="f" transform="translate(71 252.16)"><tspan x="0" y="0">Computer Science</tspan></text><rect class="e" width="115" height="32" rx="7" transform="translate(237 231.16)"/><text class="f" transform="translate(251 252.16)"><tspan x="0" y="0">Intro Course</tspan></text><rect class="e" width="63" height="32" rx="7" transform="translate(373 231.16)"/><text class="f" transform="translate(388 252.16)"><tspan x="0" y="0">Easy</tspan></text></g></svg>